<?xml version="1.0" standalone="no"?>
<!DOCTYPE svg PUBLIC "-//W3C//DTD SVG 20010904//EN"
 "http://www.w3.org/TR/2001/REC-SVG-20010904/DTD/svg10.dtd">
<svg version="1.0" xmlns="http://www.w3.org/2000/svg"
 width="1452.000000pt" height="1452.000000pt" viewBox="0 0 1452.000000 1452.000000"
 preserveAspectRatio="xMidYMid meet">
<metadata>
Created by potrace 1.11, written by Peter Selinger 2001-2013
</metadata>
<g transform="translate(0.000000,1452.000000) scale(0.100000,-0.100000)"
fill="#000000" stroke="none">
<path d="M3748 10548 c-17 -30 -18 -294 -1 -323 8 -15 29 -23 86 -32 151 -24
477 -151 554 -217 36 -30 53 -89 75 -266 19 -155 19 -4680 0 -4855 -21 -188
-36 -246 -70 -276 -72 -65 -314 -136 -599 -175 -43 -6 -48 -26 -48 -179 0
-152 11 -185 64 -185 20 0 353 13 741 30 780 32 778 32 1703 -11 247 -11 452
-17 455 -14 13 12 8 333 -5 346 -6 6 -52 15 -102 20 -109 10 -361 60 -451 90
-88 29 -177 77 -199 108 -24 33 -36 79 -55 211 -31 210 -36 356 -36 1193 0
737 2 852 15 877 20 38 43 50 97 50 148 -1 268 -152 863 -1085 483 -759 539
-837 785 -1089 290 -297 478 -427 781 -539 218 -81 564 -162 829 -194 155 -18
718 -26 792 -10 34 7 39 12 53 59 17 59 20 214 5 270 -13 47 -27 54 -120 61
-150 11 -364 94 -528 204 -238 161 -520 430 -695 664 -100 134 -480 667 -610
857 -219 317 -557 872 -557 913 0 33 10 41 82 67 215 80 469 261 649 463 268
302 402 557 476 908 25 117 27 144 27 371 1 264 -7 325 -61 490 -97 293 -346
593 -636 769 -228 137 -601 276 -917 341 -328 67 -296 65 -1345 62 -560 -2
-1069 1 -1240 7 -393 15 -729 30 -792 36 -47 5 -54 3 -65 -17z m2772 -568
c215 -23 358 -87 490 -220 100 -100 155 -191 210 -349 71 -201 102 -419 101
-721 0 -211 -16 -358 -55 -513 -87 -340 -269 -577 -502 -656 -106 -35 -194
-43 -428 -39 -263 5 -308 17 -388 99 -87 89 -83 44 -83 989 0 844 4 969 41
1165 20 106 45 160 85 184 60 37 198 60 404 69 17 1 73 -3 125 -8z"/>
<path d="M11220 5422 c-310 -87 -530 -374 -530 -692 0 -331 259 -662 575 -736
109 -25 308 -16 397 19 176 68 332 223 409 407 69 165 78 379 22 541 -70 204
-253 385 -453 451 -93 30 -327 36 -420 10z"/>
</g>
</svg>
